<?xml version="1.0" encoding="UTF-8"?><svg xmlns="http://www.w3.org/2000/svg" width="185" height="185" viewBox="0 0 37 37"><path d="M4 4h7v7h-7zM12 4h2v1h-1v1h1v1h-2zM17 4h3v2h-1v1h2v1h-1v1h-1v-1h-1v-1h-2v-1h1zM22 4h1v1h-1zM26 4h7v7h-7zM5 5v5h5v-5zM15 5h1v1h-1zM21 5h1v1h-1zM23 5h1v1h1v3h-2v-2h-1v-1h1zM27 5v5h5v-5zM6 6h3v3h-3zM28 6h3v3h-3zM14 7h1v1h3v1h1v3h1v-2h1v3h-1v1h2v2h-1v-1h-1v1h1v2h-1v1h-1v1h-2v1h-1v-1h-1v-1h3v-1h1v-1h-2v-1h1v-3h-2v-1h2v-2h-1v-1h-3zM12 8h1v1h-1zM21 8h1v2h-1zM12 10h1v1h-1zM14 10h1v1h-1zM16 10h1v1h-1zM22 10h1v1h-1zM24 10h1v2h1v2h-1v-1h-1v1h-1v-2h1zM15 11h1v1h-1zM4 12h1v1h-1zM7 12h6v1h-1v3h-1v-1h-1v-1h1v-1h-1v1h-1v1h-2v1h-1v1h-1v-1h-1v-2h1v1h1v-2h1zM28 12h1v3h-1v2h4v-2h1v5h-1v-2h-1v2h-1v-2h-1v2h-2v-1h1v-1h-1v1h-3v1h2v1h-2v3h-1v-2h-1v-3h-1v-1h1v-1h2v1h2v-2h-1v1h-1v-2h3v-2h1zM30 12h3v1h-1v1h-1v1h-1zM14 13h2v1h-2zM16 14h1v2h-2v-1h1zM29 15h1v1h-1zM7 16h1v1h1v1h-1v1h1v-1h2v1h-1v1h-1v1h-3v1h3v-1h1v1h3v1h-1v2h-2v-1h1v-1h-1v1h-1v-1h-3v1h3v1h-5v-8h1v1h2zM9 16h2v1h-2zM14 16h1v2h-1zM11 17h1v1h-1zM16 17h1v1h-1zM6 19v1h1v-1zM11 19h2v1h-1v1h-2v-1h1zM20 19h1v1h-1zM19 20h1v3h-2v6h-1v-1h-1v-2h-2v3h1v-1h1v1h1v1h-1v1h1v1h-1v1h-1v-2h-2v-1h-1v-5h3v-1h1v-1h1v-1h2zM29 20h1v1h-1zM13 21h2v1h-2zM28 21h1v1h1v1h1v1h1v1h-2v2h-1v1h1v1h-4v2h-2v-1h1v-1h-2v-2h-1v1h-1v2h-1v1h-1v-1h-1v-1h2v-2h-1v-2h1v1h4v-2h2v-1h1v1h2v-1h-1zM30 21h2v1h-2zM32 22h1v1h-1zM13 23h2v1h-2zM20 23h1v1h1v1h-2zM25 25v3h3v-3zM4 26h7v7h-7zM26 26h1v1h-1zM5 27v5h5v-5zM31 27h1v1h1v4h-1v-1h-1v1h-2v-1h1v-1h2v-1h-1zM6 28h3v3h-3zM21 30h2v2h2v1h-3v-2h-1zM27 30h2v1h-1v1h-1v1h-1v-2h1zM12 32h2v1h-2zM17 32h1v1h-1zM28 32h1v1h-1z"/></svg>